<mxfile host="app.diagrams.net" agent="Mozilla/5.0 (Windows NT 10.0; Win64; x64) AppleWebKit/537.36 (KHTML, like Gecko) Chrome/126.0.0.0 Safari/537.36 Edg/126.0.0.0" version="24.7.4">
  <diagram id="R2lEEEUBdFMjLlhIrx00" name="Page-1">
    <mxGraphModel dx="10804" dy="5204" grid="1" gridSize="10" guides="1" tooltips="1" connect="1" arrows="1" fold="1" page="1" pageScale="1" pageWidth="850" pageHeight="1100" math="0" shadow="0" extFonts="Permanent Marker^https://fonts.googleapis.com/css?family=Permanent+Marker">
      <root>
        <mxCell id="0" />
        <mxCell id="1" parent="0" />
        <mxCell id="YggckkRVtqMCZooF6UbN-6" value="" style="swimlane;startSize=0;fillColor=#e1d5e7;strokeColor=#9673a6;strokeWidth=4;" parent="1" vertex="1">
          <mxGeometry x="-2990" y="340" width="4650" height="1310" as="geometry" />
        </mxCell>
        <mxCell id="YggckkRVtqMCZooF6UbN-22" value="&lt;font color=&quot;#9673a6&quot; style=&quot;font-size: 36px;&quot;&gt;pricing_staging&lt;/font&gt;" style="text;html=1;align=center;verticalAlign=middle;whiteSpace=wrap;rounded=0;" parent="YggckkRVtqMCZooF6UbN-6" vertex="1">
          <mxGeometry x="80" y="10" width="230" height="30" as="geometry" />
        </mxCell>
        <mxCell id="CPg8P09N1OD6WJGmpGxm-27" style="edgeStyle=orthogonalEdgeStyle;rounded=0;orthogonalLoop=1;jettySize=auto;html=1;entryX=0;entryY=0.5;entryDx=0;entryDy=0;" parent="YggckkRVtqMCZooF6UbN-6" source="YggckkRVtqMCZooF6UbN-34" target="CPg8P09N1OD6WJGmpGxm-18" edge="1">
          <mxGeometry relative="1" as="geometry" />
        </mxCell>
        <mxCell id="YggckkRVtqMCZooF6UbN-34" value="&lt;div&gt;sales_invoice_pricing_{publisher}_&lt;/div&gt;&lt;div&gt;{task.extraction_batch_id}_cons_orders&lt;br&gt;&lt;/div&gt;" style="rounded=0;whiteSpace=wrap;html=1;fillColor=#e1d5e7;strokeColor=#9673a6;" parent="YggckkRVtqMCZooF6UbN-6" vertex="1">
          <mxGeometry x="550" y="980" width="352.5" height="60" as="geometry" />
        </mxCell>
        <mxCell id="CPg8P09N1OD6WJGmpGxm-30" value="ps$&lt;div&gt;rsdistrib$&lt;br&gt;&lt;/div&gt;&lt;div&gt;so_id$&lt;br&gt;&lt;/div&gt;&lt;div&gt;so_line_id$&lt;br&gt;&lt;/div&gt;" style="rhombus;whiteSpace=wrap;html=1;" parent="YggckkRVtqMCZooF6UbN-6" vertex="1">
          <mxGeometry x="2415" y="940" width="80" height="80" as="geometry" />
        </mxCell>
        <mxCell id="ArN27UHTNh0HrAlM6qyn-1" value="" style="swimlane;startSize=0;dashed=1;strokeWidth=9;fillColor=#d5e8d4;strokeColor=#82b366;" parent="YggckkRVtqMCZooF6UbN-6" vertex="1">
          <mxGeometry x="2300" y="200" width="2310" height="990" as="geometry" />
        </mxCell>
        <mxCell id="ArN27UHTNh0HrAlM6qyn-2" value="&lt;font style=&quot;font-size: 48px;&quot; color=&quot;#82b366&quot;&gt;Layer 2: Consolidation&lt;/font&gt;" style="text;html=1;align=center;verticalAlign=middle;whiteSpace=wrap;rounded=0;" parent="ArN27UHTNh0HrAlM6qyn-1" vertex="1">
          <mxGeometry x="830" y="30" width="540" height="55" as="geometry" />
        </mxCell>
        <mxCell id="CPg8P09N1OD6WJGmpGxm-14" value="&lt;div&gt;sales_invoice_pricing_{publisher}_{batch_id}_cons1&lt;br&gt;&lt;/div&gt;" style="rounded=0;whiteSpace=wrap;html=1;fillColor=#e1d5e7;strokeColor=#9673a6;" parent="ArN27UHTNh0HrAlM6qyn-1" vertex="1">
          <mxGeometry x="40" y="340" width="300" height="60" as="geometry" />
        </mxCell>
        <mxCell id="IO22isx14ON4vYv-_GZl-15" style="edgeStyle=orthogonalEdgeStyle;rounded=0;orthogonalLoop=1;jettySize=auto;html=1;fillColor=#ffe6cc;strokeColor=#d79b00;" parent="ArN27UHTNh0HrAlM6qyn-1" source="IO22isx14ON4vYv-_GZl-11" edge="1">
          <mxGeometry relative="1" as="geometry">
            <mxPoint x="190" y="410" as="targetPoint" />
          </mxGeometry>
        </mxCell>
        <mxCell id="IO22isx14ON4vYv-_GZl-11" value="ps$&lt;div&gt;rsdistrib$&lt;br&gt;&lt;div&gt;invoice_id$&lt;br&gt;&lt;/div&gt;&lt;div&gt;invoice_line_id$&lt;br&gt;&lt;/div&gt;&lt;/div&gt;&lt;div&gt;mkt..event_end$ IN (&#39;D&#39;,&#39;R&#39;)&lt;/div&gt;" style="rhombus;whiteSpace=wrap;html=1;fillColor=#ffe6cc;strokeColor=#d79b00;" parent="ArN27UHTNh0HrAlM6qyn-1" vertex="1">
          <mxGeometry x="90" y="590" width="80" height="80" as="geometry" />
        </mxCell>
        <mxCell id="CPg8P09N1OD6WJGmpGxm-25" value="ps$&lt;div&gt;rsdistrib$&lt;br&gt;&lt;/div&gt;&lt;div&gt;invoice_id$&lt;/div&gt;&lt;div&gt;invoice_line_id$&lt;/div&gt;" style="rhombus;whiteSpace=wrap;html=1;fillColor=#647687;fontColor=#ffffff;strokeColor=#314354;" parent="ArN27UHTNh0HrAlM6qyn-1" vertex="1">
          <mxGeometry x="1220" y="420" width="110" height="80" as="geometry" />
        </mxCell>
        <mxCell id="CPg8P09N1OD6WJGmpGxm-34" value="ps$&lt;div&gt;rsdistrib$&lt;/div&gt;&lt;div&gt;invoice_id$&lt;/div&gt;&lt;div&gt;invoice_line_id$&lt;/div&gt;" style="rhombus;whiteSpace=wrap;html=1;fillColor=#647687;fontColor=#ffffff;strokeColor=#314354;" parent="ArN27UHTNh0HrAlM6qyn-1" vertex="1">
          <mxGeometry x="795" y="630" width="80" height="80" as="geometry" />
        </mxCell>
        <mxCell id="CPg8P09N1OD6WJGmpGxm-22" value="&lt;div&gt;sales_invoice_pricing_{publisher}_{batch_id}_cons_counter&amp;nbsp;&lt;br&gt;&lt;/div&gt;" style="rounded=0;whiteSpace=wrap;html=1;fillColor=#e1d5e7;strokeColor=#9673a6;" parent="ArN27UHTNh0HrAlM6qyn-1" vertex="1">
          <mxGeometry x="1430" y="430" width="400" height="60" as="geometry" />
        </mxCell>
        <mxCell id="IO22isx14ON4vYv-_GZl-13" style="edgeStyle=orthogonalEdgeStyle;rounded=0;orthogonalLoop=1;jettySize=auto;html=1;" parent="ArN27UHTNh0HrAlM6qyn-1" source="CPg8P09N1OD6WJGmpGxm-25" target="CPg8P09N1OD6WJGmpGxm-22" edge="1">
          <mxGeometry relative="1" as="geometry" />
        </mxCell>
        <mxCell id="CPg8P09N1OD6WJGmpGxm-18" value="&lt;div&gt;sales_invoice_pricing_{publisher}_{batch_id}_cons_order_in_scope&lt;br&gt;&lt;/div&gt;" style="rounded=0;whiteSpace=wrap;html=1;fillColor=#e1d5e7;strokeColor=#9673a6;" parent="ArN27UHTNh0HrAlM6qyn-1" vertex="1">
          <mxGeometry x="1440" y="760" width="400" height="60" as="geometry" />
        </mxCell>
        <mxCell id="CPg8P09N1OD6WJGmpGxm-20" value="&lt;div&gt;sales_invoice_pricing_{publisher}_{batch_id}_cons_order_numbers&lt;br&gt;&lt;/div&gt;" style="rounded=0;whiteSpace=wrap;html=1;fillColor=#e1d5e7;strokeColor=#9673a6;" parent="ArN27UHTNh0HrAlM6qyn-1" vertex="1">
          <mxGeometry x="950" y="640" width="400" height="60" as="geometry" />
        </mxCell>
        <mxCell id="CPg8P09N1OD6WJGmpGxm-29" style="edgeStyle=orthogonalEdgeStyle;rounded=0;orthogonalLoop=1;jettySize=auto;html=1;entryX=0;entryY=0.5;entryDx=0;entryDy=0;" parent="ArN27UHTNh0HrAlM6qyn-1" source="CPg8P09N1OD6WJGmpGxm-20" target="CPg8P09N1OD6WJGmpGxm-18" edge="1">
          <mxGeometry relative="1" as="geometry" />
        </mxCell>
        <mxCell id="IO22isx14ON4vYv-_GZl-14" style="edgeStyle=orthogonalEdgeStyle;rounded=0;orthogonalLoop=1;jettySize=auto;html=1;entryX=0;entryY=0.5;entryDx=0;entryDy=0;" parent="ArN27UHTNh0HrAlM6qyn-1" source="CPg8P09N1OD6WJGmpGxm-34" target="CPg8P09N1OD6WJGmpGxm-20" edge="1">
          <mxGeometry relative="1" as="geometry" />
        </mxCell>
        <mxCell id="CPg8P09N1OD6WJGmpGxm-19" value="&lt;div&gt;sales_invoice_pricing_{publisher}_{batch_id}_cons_changed_records&lt;br&gt;&lt;/div&gt;" style="rounded=0;whiteSpace=wrap;html=1;fillColor=#e1d5e7;strokeColor=#9673a6;" parent="ArN27UHTNh0HrAlM6qyn-1" vertex="1">
          <mxGeometry x="335" y="550" width="400" height="60" as="geometry" />
        </mxCell>
        <mxCell id="RJPC-IpVycoKtif2ZGqf-1" style="edgeStyle=orthogonalEdgeStyle;rounded=0;orthogonalLoop=1;jettySize=auto;html=1;entryX=0;entryY=0.5;entryDx=0;entryDy=0;" parent="ArN27UHTNh0HrAlM6qyn-1" source="CPg8P09N1OD6WJGmpGxm-14" target="CPg8P09N1OD6WJGmpGxm-19" edge="1">
          <mxGeometry relative="1" as="geometry" />
        </mxCell>
        <mxCell id="CPg8P09N1OD6WJGmpGxm-23" style="edgeStyle=orthogonalEdgeStyle;rounded=0;orthogonalLoop=1;jettySize=auto;html=1;entryX=0.5;entryY=1;entryDx=0;entryDy=0;fillColor=#647687;strokeColor=#314354;" parent="ArN27UHTNh0HrAlM6qyn-1" source="CPg8P09N1OD6WJGmpGxm-19" target="CPg8P09N1OD6WJGmpGxm-25" edge="1">
          <mxGeometry relative="1" as="geometry" />
        </mxCell>
        <mxCell id="CPg8P09N1OD6WJGmpGxm-31" style="edgeStyle=orthogonalEdgeStyle;rounded=0;orthogonalLoop=1;jettySize=auto;html=1;entryX=0.5;entryY=0;entryDx=0;entryDy=0;fillColor=#647687;strokeColor=#314354;" parent="ArN27UHTNh0HrAlM6qyn-1" source="CPg8P09N1OD6WJGmpGxm-19" target="CPg8P09N1OD6WJGmpGxm-34" edge="1">
          <mxGeometry relative="1" as="geometry" />
        </mxCell>
        <mxCell id="CPg8P09N1OD6WJGmpGxm-21" value="&lt;div&gt;sales_invoice_pricing_{publisher}_{batch_id}_cons&amp;nbsp;&lt;br&gt;&lt;/div&gt;" style="rounded=0;whiteSpace=wrap;html=1;fillColor=#e1d5e7;strokeColor=#9673a6;" parent="ArN27UHTNh0HrAlM6qyn-1" vertex="1">
          <mxGeometry x="680" y="900" width="400" height="60" as="geometry" />
        </mxCell>
        <mxCell id="xhP3Qau-s0l5G0X_uNzF-16" value="" style="swimlane;startSize=0;fillColor=#f8cecc;strokeColor=#b85450;strokeWidth=4;" parent="1" vertex="1">
          <mxGeometry x="-5030" y="530" width="250" height="250" as="geometry" />
        </mxCell>
        <mxCell id="YggckkRVtqMCZooF6UbN-21" value="" style="edgeStyle=orthogonalEdgeStyle;rounded=0;orthogonalLoop=1;jettySize=auto;html=1;" parent="xhP3Qau-s0l5G0X_uNzF-16" source="xhP3Qau-s0l5G0X_uNzF-19" target="xhP3Qau-s0l5G0X_uNzF-21" edge="1">
          <mxGeometry relative="1" as="geometry" />
        </mxCell>
        <mxCell id="xhP3Qau-s0l5G0X_uNzF-19" value="&lt;font style=&quot;font-size: 36px;&quot;&gt;Sharepoint&lt;/font&gt;" style="text;html=1;align=center;verticalAlign=middle;whiteSpace=wrap;rounded=0;fillColor=#f8cecc;strokeColor=#b85450;" parent="xhP3Qau-s0l5G0X_uNzF-16" vertex="1">
          <mxGeometry x="20" y="10" width="220" height="30" as="geometry" />
        </mxCell>
        <mxCell id="xhP3Qau-s0l5G0X_uNzF-21" value="pricing_parameters" style="rounded=0;whiteSpace=wrap;html=1;fillColor=#f8cecc;strokeColor=#b85450;" parent="xhP3Qau-s0l5G0X_uNzF-16" vertex="1">
          <mxGeometry x="37.5" y="60" width="185" height="60" as="geometry" />
        </mxCell>
        <mxCell id="xhP3Qau-s0l5G0X_uNzF-27" value="pricing_rules" style="rounded=0;whiteSpace=wrap;html=1;fillColor=#f8cecc;strokeColor=#b85450;" parent="xhP3Qau-s0l5G0X_uNzF-16" vertex="1">
          <mxGeometry x="37.5" y="160" width="185" height="60" as="geometry" />
        </mxCell>
        <mxCell id="xhP3Qau-s0l5G0X_uNzF-17" value="" style="swimlane;startSize=0;" parent="1" vertex="1">
          <mxGeometry x="-800" y="-1150" width="300" height="470" as="geometry" />
        </mxCell>
        <mxCell id="xhP3Qau-s0l5G0X_uNzF-20" value="&lt;font style=&quot;font-size: 18px;&quot;&gt;UDL?&lt;/font&gt;" style="text;html=1;align=center;verticalAlign=middle;whiteSpace=wrap;rounded=0;" parent="xhP3Qau-s0l5G0X_uNzF-17" vertex="1">
          <mxGeometry x="100" y="20" width="60" height="30" as="geometry" />
        </mxCell>
        <mxCell id="xhP3Qau-s0l5G0X_uNzF-23" value="SALES_INVOICE&lt;div&gt;&lt;br&gt;&lt;div&gt;&lt;font style=&quot;font-size: 10px;&quot;&gt;{BAM, BAP, BEU, BNDCS, CNS, EGS, IBS, NOS, SEAS, SNB, TRS, UKS}&lt;/font&gt;&lt;br&gt;&lt;/div&gt;&lt;/div&gt;" style="rounded=0;whiteSpace=wrap;html=1;" parent="xhP3Qau-s0l5G0X_uNzF-17" vertex="1">
          <mxGeometry x="37.5" y="60" width="242.5" height="60" as="geometry" />
        </mxCell>
        <mxCell id="xhP3Qau-s0l5G0X_uNzF-24" value="SALES_ORDER&lt;div&gt;&lt;br&gt;&lt;/div&gt;&lt;div&gt;&lt;font style=&quot;font-size: 10px;&quot;&gt;{BAM, BAP, BEU, BNDCS, CNS, EGS, IBS, NOS, SEAS, SNB, TRS, UKS}&lt;/font&gt;&lt;br&gt;&lt;/div&gt;" style="rounded=0;whiteSpace=wrap;html=1;" parent="xhP3Qau-s0l5G0X_uNzF-17" vertex="1">
          <mxGeometry x="37.5" y="140" width="242.5" height="60" as="geometry" />
        </mxCell>
        <mxCell id="xhP3Qau-s0l5G0X_uNzF-25" value="MKT_PRC_SALES_INVOICE_CONDITION&lt;div&gt;&lt;br&gt;&lt;/div&gt;&lt;div&gt;&lt;font style=&quot;font-size: 10px;&quot;&gt;{BAM, BAP, BEU, BNDCS, CNS, EGS, IBS, NOS, SEAS, SNB, TRS, UKS}&lt;/font&gt;&lt;/div&gt;" style="rounded=0;whiteSpace=wrap;html=1;" parent="xhP3Qau-s0l5G0X_uNzF-17" vertex="1">
          <mxGeometry x="37.5" y="220" width="242.5" height="60" as="geometry" />
        </mxCell>
        <mxCell id="xhP3Qau-s0l5G0X_uNzF-26" value="LOCAL_CURRENCY_RATE&lt;div&gt;&lt;br&gt;&lt;/div&gt;&lt;div&gt;&lt;font style=&quot;font-size: 10px;&quot;&gt;{BAM, BAP, BEU, BNDCS, CNS, EGS, IBS, NOS, SEAS, SNB, TRS, UKS}&lt;/font&gt;&lt;/div&gt;" style="rounded=0;whiteSpace=wrap;html=1;" parent="xhP3Qau-s0l5G0X_uNzF-17" vertex="1">
          <mxGeometry x="37.5" y="300" width="242.5" height="60" as="geometry" />
        </mxCell>
        <mxCell id="xhP3Qau-s0l5G0X_uNzF-22" value="GL_ENTRY&lt;div&gt;&lt;br&gt;&lt;/div&gt;&lt;div&gt;&lt;font style=&quot;font-size: 10px;&quot;&gt;{BAM, BAP, BEU, BNDCS, CNS, EGS, IBS, NOS, SEAS, SNB, TRS, UKS}&lt;/font&gt;&lt;/div&gt;" style="rounded=0;whiteSpace=wrap;html=1;" parent="xhP3Qau-s0l5G0X_uNzF-17" vertex="1">
          <mxGeometry x="37.5" y="380" width="242.5" height="60" as="geometry" />
        </mxCell>
        <mxCell id="CPg8P09N1OD6WJGmpGxm-3" style="edgeStyle=orthogonalEdgeStyle;rounded=0;orthogonalLoop=1;jettySize=auto;html=1;" parent="1" source="R0b6dVNcokjQHEYzS0Gx-1" target="YggckkRVtqMCZooF6UbN-4" edge="1">
          <mxGeometry relative="1" as="geometry" />
        </mxCell>
        <mxCell id="CPg8P09N1OD6WJGmpGxm-4" style="edgeStyle=orthogonalEdgeStyle;rounded=0;orthogonalLoop=1;jettySize=auto;html=1;" parent="1" source="R0b6dVNcokjQHEYzS0Gx-2" target="YggckkRVtqMCZooF6UbN-5" edge="1">
          <mxGeometry relative="1" as="geometry" />
        </mxCell>
        <mxCell id="YggckkRVtqMCZooF6UbN-2" value="" style="swimlane;startSize=0;fillColor=#dae8fc;strokeColor=#6c8ebf;strokeWidth=4;" parent="1" vertex="1">
          <mxGeometry x="-3690" y="340" width="450" height="460" as="geometry" />
        </mxCell>
        <mxCell id="YggckkRVtqMCZooF6UbN-3" value="&lt;font color=&quot;#6c8ebf&quot; style=&quot;font-size: 36px;&quot;&gt;rdl_outbound&lt;/font&gt;" style="text;html=1;align=center;verticalAlign=middle;whiteSpace=wrap;rounded=0;" parent="YggckkRVtqMCZooF6UbN-2" vertex="1">
          <mxGeometry x="90" y="10" width="230" height="30" as="geometry" />
        </mxCell>
        <mxCell id="YggckkRVtqMCZooF6UbN-4" value="sd_{source}_tvko" style="rounded=0;whiteSpace=wrap;html=1;fillColor=#dae8fc;strokeColor=#6c8ebf;" parent="YggckkRVtqMCZooF6UbN-2" vertex="1">
          <mxGeometry x="37.5" y="150" width="185" height="60" as="geometry" />
        </mxCell>
        <mxCell id="YggckkRVtqMCZooF6UbN-5" value="sd_{source}_tcurf" style="rounded=0;whiteSpace=wrap;html=1;fillColor=#dae8fc;strokeColor=#6c8ebf;" parent="YggckkRVtqMCZooF6UbN-2" vertex="1">
          <mxGeometry x="37.5" y="70" width="185" height="60" as="geometry" />
        </mxCell>
        <mxCell id="YggckkRVtqMCZooF6UbN-38" value="pricing_sharepoint_pricing_rules" style="rounded=0;whiteSpace=wrap;html=1;fillColor=#dae8fc;strokeColor=#6c8ebf;" parent="YggckkRVtqMCZooF6UbN-2" vertex="1">
          <mxGeometry x="37.5" y="350" width="242.5" height="60" as="geometry" />
        </mxCell>
        <mxCell id="YggckkRVtqMCZooF6UbN-36" style="edgeStyle=orthogonalEdgeStyle;rounded=0;orthogonalLoop=1;jettySize=auto;html=1;" parent="1" source="YggckkRVtqMCZooF6UbN-5" target="YggckkRVtqMCZooF6UbN-9" edge="1">
          <mxGeometry relative="1" as="geometry" />
        </mxCell>
        <mxCell id="RlMirk8GaKu8xnlFQnCm-4" value="&lt;div&gt;ids_event_end = &#39;X&#39;&lt;/div&gt;&lt;div&gt;&amp;nbsp; &amp;nbsp; &amp;nbsp; &amp;nbsp; and kurst = &#39;M&#39;;&lt;/div&gt;" style="edgeLabel;html=1;align=center;verticalAlign=middle;resizable=0;points=[];" vertex="1" connectable="0" parent="YggckkRVtqMCZooF6UbN-36">
          <mxGeometry x="-0.6499" y="-4" relative="1" as="geometry">
            <mxPoint as="offset" />
          </mxGeometry>
        </mxCell>
        <mxCell id="YggckkRVtqMCZooF6UbN-44" style="edgeStyle=orthogonalEdgeStyle;rounded=0;orthogonalLoop=1;jettySize=auto;html=1;entryX=0;entryY=0.5;entryDx=0;entryDy=0;" parent="1" source="YggckkRVtqMCZooF6UbN-4" target="YggckkRVtqMCZooF6UbN-8" edge="1">
          <mxGeometry relative="1" as="geometry" />
        </mxCell>
        <mxCell id="YggckkRVtqMCZooF6UbN-45" style="edgeStyle=orthogonalEdgeStyle;rounded=0;orthogonalLoop=1;jettySize=auto;html=1;entryX=0;entryY=0.5;entryDx=0;entryDy=0;" parent="1" source="YggckkRVtqMCZooF6UbN-4" target="YggckkRVtqMCZooF6UbN-47" edge="1">
          <mxGeometry relative="1" as="geometry" />
        </mxCell>
        <mxCell id="YggckkRVtqMCZooF6UbN-46" value="&lt;font style=&quot;font-size: 14px;&quot;&gt;left&lt;/font&gt;" style="edgeLabel;html=1;align=center;verticalAlign=middle;resizable=0;points=[];" parent="YggckkRVtqMCZooF6UbN-45" vertex="1" connectable="0">
          <mxGeometry x="-0.0105" y="3" relative="1" as="geometry">
            <mxPoint x="93" y="16" as="offset" />
          </mxGeometry>
        </mxCell>
        <mxCell id="IO22isx14ON4vYv-_GZl-20" value="ids_event_end = &#39;X&#39;" style="edgeLabel;html=1;align=center;verticalAlign=middle;resizable=0;points=[];" parent="YggckkRVtqMCZooF6UbN-45" vertex="1" connectable="0">
          <mxGeometry x="-0.9187" y="1" relative="1" as="geometry">
            <mxPoint x="75" y="-9" as="offset" />
          </mxGeometry>
        </mxCell>
        <mxCell id="YggckkRVtqMCZooF6UbN-49" style="edgeStyle=orthogonalEdgeStyle;rounded=0;orthogonalLoop=1;jettySize=auto;html=1;" parent="1" source="YggckkRVtqMCZooF6UbN-38" target="YggckkRVtqMCZooF6UbN-30" edge="1">
          <mxGeometry relative="1" as="geometry" />
        </mxCell>
        <mxCell id="YggckkRVtqMCZooF6UbN-50" value="ids_start &amp;lt;= max_ing_date &amp;lt; ids_end&lt;div&gt;UNION&lt;/div&gt;&lt;div&gt;ids_start &amp;lt; max_ed_date &amp;lt; ids_end &amp;lt; max_ing_date&lt;/div&gt;&lt;div&gt;AND ids_event_end in (&#39;D&#39;,&#39;R&#39;)&lt;br&gt;&lt;/div&gt;" style="edgeLabel;html=1;align=center;verticalAlign=middle;resizable=0;points=[];" parent="YggckkRVtqMCZooF6UbN-49" vertex="1" connectable="0">
          <mxGeometry x="-0.3182" relative="1" as="geometry">
            <mxPoint x="107" as="offset" />
          </mxGeometry>
        </mxCell>
        <mxCell id="YggckkRVtqMCZooF6UbN-85" value="" style="swimlane;startSize=0;fillColor=#f5f5f5;strokeColor=#666666;strokeWidth=4;fontColor=#333333;" parent="1" vertex="1">
          <mxGeometry x="-4700" y="530" width="340" height="250" as="geometry" />
        </mxCell>
        <mxCell id="YggckkRVtqMCZooF6UbN-86" value="" style="edgeStyle=orthogonalEdgeStyle;rounded=0;orthogonalLoop=1;jettySize=auto;html=1;" parent="YggckkRVtqMCZooF6UbN-85" source="YggckkRVtqMCZooF6UbN-87" target="YggckkRVtqMCZooF6UbN-88" edge="1">
          <mxGeometry relative="1" as="geometry" />
        </mxCell>
        <mxCell id="YggckkRVtqMCZooF6UbN-87" value="&lt;font color=&quot;#666666&quot; style=&quot;font-size: 36px;&quot;&gt;pricing_sharepoint&lt;/font&gt;" style="text;html=1;align=center;verticalAlign=middle;whiteSpace=wrap;rounded=0;" parent="YggckkRVtqMCZooF6UbN-85" vertex="1">
          <mxGeometry x="10" y="10" width="310" height="30" as="geometry" />
        </mxCell>
        <mxCell id="YggckkRVtqMCZooF6UbN-88" value="pricing_sharepoint_pricing_parameters" style="rounded=0;whiteSpace=wrap;html=1;fillColor=#f5f5f5;fontColor=#333333;strokeColor=#666666;" parent="YggckkRVtqMCZooF6UbN-85" vertex="1">
          <mxGeometry x="37.5" y="60" width="262.5" height="60" as="geometry" />
        </mxCell>
        <mxCell id="YggckkRVtqMCZooF6UbN-89" value="pricing_sharepoint_pricing_rules" style="rounded=0;whiteSpace=wrap;html=1;fillColor=#f5f5f5;fontColor=#333333;strokeColor=#666666;" parent="YggckkRVtqMCZooF6UbN-85" vertex="1">
          <mxGeometry x="37.5" y="160" width="262.5" height="60" as="geometry" />
        </mxCell>
        <mxCell id="YggckkRVtqMCZooF6UbN-90" style="edgeStyle=orthogonalEdgeStyle;rounded=0;orthogonalLoop=1;jettySize=auto;html=1;entryX=0;entryY=0.5;entryDx=0;entryDy=0;" parent="1" source="xhP3Qau-s0l5G0X_uNzF-21" target="YggckkRVtqMCZooF6UbN-88" edge="1">
          <mxGeometry relative="1" as="geometry" />
        </mxCell>
        <mxCell id="YggckkRVtqMCZooF6UbN-91" style="edgeStyle=orthogonalEdgeStyle;rounded=0;orthogonalLoop=1;jettySize=auto;html=1;" parent="1" source="xhP3Qau-s0l5G0X_uNzF-27" target="YggckkRVtqMCZooF6UbN-89" edge="1">
          <mxGeometry relative="1" as="geometry" />
        </mxCell>
        <mxCell id="YggckkRVtqMCZooF6UbN-93" style="edgeStyle=orthogonalEdgeStyle;rounded=0;orthogonalLoop=1;jettySize=auto;html=1;" parent="1" source="YggckkRVtqMCZooF6UbN-89" target="YggckkRVtqMCZooF6UbN-38" edge="1">
          <mxGeometry relative="1" as="geometry" />
        </mxCell>
        <mxCell id="CPg8P09N1OD6WJGmpGxm-5" value="" style="swimlane;startSize=0;strokeWidth=3;strokeColor=#6F0000;" parent="1" vertex="1">
          <mxGeometry x="-4050" y="350" width="200" height="220" as="geometry" />
        </mxCell>
        <mxCell id="CPg8P09N1OD6WJGmpGxm-8" value="&lt;font style=&quot;font-size: 36px;&quot;&gt;SAP&lt;/font&gt;" style="text;html=1;align=center;verticalAlign=middle;whiteSpace=wrap;rounded=0;fillColor=#6a00ff;strokeColor=#3700CC;fontColor=#ffffff;" parent="CPg8P09N1OD6WJGmpGxm-5" vertex="1">
          <mxGeometry x="40" y="20" width="130" height="30" as="geometry" />
        </mxCell>
        <mxCell id="R0b6dVNcokjQHEYzS0Gx-2" value="&lt;div&gt;&lt;div&gt;TCURF&lt;/div&gt;&lt;/div&gt;" style="rounded=0;whiteSpace=wrap;html=1;fillColor=#a20025;strokeColor=#6F0000;fontColor=#ffffff;" parent="CPg8P09N1OD6WJGmpGxm-5" vertex="1">
          <mxGeometry x="50" y="60" width="80" height="60" as="geometry" />
        </mxCell>
        <mxCell id="R0b6dVNcokjQHEYzS0Gx-1" value="&lt;div&gt;&lt;div&gt;TVKO&lt;/div&gt;&lt;/div&gt;" style="rounded=0;whiteSpace=wrap;html=1;fillColor=#a20025;strokeColor=#6F0000;fontColor=#ffffff;" parent="CPg8P09N1OD6WJGmpGxm-5" vertex="1">
          <mxGeometry x="50" y="140" width="80" height="60" as="geometry" />
        </mxCell>
        <mxCell id="CPg8P09N1OD6WJGmpGxm-7" style="edgeStyle=orthogonalEdgeStyle;rounded=0;orthogonalLoop=1;jettySize=auto;html=1;entryX=0;entryY=0.5;entryDx=0;entryDy=0;" parent="1" source="YggckkRVtqMCZooF6UbN-88" target="YggckkRVtqMCZooF6UbN-37" edge="1">
          <mxGeometry relative="1" as="geometry" />
        </mxCell>
        <mxCell id="CPg8P09N1OD6WJGmpGxm-10" value="" style="swimlane;startSize=0;dashed=1;strokeWidth=9;fillColor=#0050ef;fontColor=#ffffff;strokeColor=#001DBC;" parent="1" vertex="1">
          <mxGeometry x="-3790" y="90" width="2990" height="1440" as="geometry" />
        </mxCell>
        <mxCell id="CPg8P09N1OD6WJGmpGxm-13" value="&lt;font color=&quot;#0050ef&quot; style=&quot;font-size: 48px;&quot;&gt;Layer 1: Ingestion&lt;/font&gt;" style="text;html=1;align=center;verticalAlign=middle;whiteSpace=wrap;rounded=0;" parent="CPg8P09N1OD6WJGmpGxm-10" vertex="1">
          <mxGeometry x="1000" y="51" width="560" height="69" as="geometry" />
        </mxCell>
        <mxCell id="IO22isx14ON4vYv-_GZl-3" value="local_currency_rate_with_date_to" style="rounded=0;whiteSpace=wrap;html=1;fillColor=#d5e8d4;strokeColor=#82b366;" parent="CPg8P09N1OD6WJGmpGxm-10" vertex="1">
          <mxGeometry x="137.5" y="1310" width="242.5" height="60" as="geometry" />
        </mxCell>
        <mxCell id="YggckkRVtqMCZooF6UbN-82" value="ps$&lt;div&gt;sales_org_l$&lt;br&gt;&lt;/div&gt;" style="rhombus;whiteSpace=wrap;html=1;fillColor=#ffe6cc;strokeColor=#d79b00;" parent="CPg8P09N1OD6WJGmpGxm-10" vertex="1">
          <mxGeometry x="1230" y="1220" width="80" height="80" as="geometry" />
        </mxCell>
        <mxCell id="YggckkRVtqMCZooF6UbN-77" value="ps$&lt;div&gt;se_company_l$&lt;br&gt;&lt;/div&gt;&lt;div&gt;invoice_id$&lt;br&gt;&lt;/div&gt;" style="rhombus;whiteSpace=wrap;html=1;fillColor=#dae8fc;strokeColor=#6c8ebf;" parent="CPg8P09N1OD6WJGmpGxm-10" vertex="1">
          <mxGeometry x="1910" y="1000" width="110" height="80" as="geometry" />
        </mxCell>
        <mxCell id="YggckkRVtqMCZooF6UbN-47" value="ps$&lt;div&gt;(nvl(pp.sales_org_l$,&#39;&#39;) = &#39;*&#39; OR position(t.sales_org_l$ IN pp.sales_org_l$) &amp;gt; 0)&amp;nbsp;&lt;br&gt;&lt;/div&gt;" style="rhombus;whiteSpace=wrap;html=1;fillColor=#dae8fc;strokeColor=#6c8ebf;" parent="CPg8P09N1OD6WJGmpGxm-10" vertex="1">
          <mxGeometry x="566" y="436" width="190" height="90" as="geometry" />
        </mxCell>
        <mxCell id="YggckkRVtqMCZooF6UbN-9" value="sales_invoice_pricing_{publisher}_&lt;div&gt;{task.extraction_batch_id}_cons_tcurf&lt;/div&gt;" style="rounded=0;whiteSpace=wrap;html=1;fillColor=#e1d5e7;strokeColor=#9673a6;" parent="CPg8P09N1OD6WJGmpGxm-10" vertex="1">
          <mxGeometry x="827" y="320" width="352.5" height="60" as="geometry" />
        </mxCell>
        <mxCell id="YggckkRVtqMCZooF6UbN-56" value="&lt;div&gt;(pp.distribution_channel_in in (&#39;,,&#39;, &#39;,*,&#39;) OR position(&#39;,&#39; + i.distribution_channel + &#39;,&#39; IN pp.distribution_channel_in) &amp;gt; 0)&lt;/div&gt;&lt;div&gt;&lt;span style=&quot;white-space: normal;&quot;&gt;&lt;span style=&quot;white-space:pre&quot;&gt;&#x9;&lt;/span&gt;&amp;nbsp; &amp;nbsp; &amp;nbsp;AND (pp.division_in in (&#39;,,&#39;, &#39;,*,&#39;)&amp;nbsp; &amp;nbsp; &amp;nbsp; &amp;nbsp; &amp;nbsp; &amp;nbsp; &amp;nbsp;OR position(&#39;,&#39; + i.division + &#39;,&#39; IN pp.division_in) &amp;gt; 0)&lt;/span&gt;&lt;/div&gt;&lt;div&gt;&lt;span style=&quot;white-space: normal;&quot;&gt;&lt;span style=&quot;white-space:pre&quot;&gt;&#x9;&lt;/span&gt;&amp;nbsp; &amp;nbsp; &amp;nbsp;AND position(&#39;,&#39; + i.transaction_type_l$ + &#39;,&#39; IN pp.transaction_type_l$_out) = 0&lt;/span&gt;&lt;/div&gt;&lt;div&gt;&lt;span style=&quot;white-space: normal;&quot;&gt;&lt;span style=&quot;white-space:pre&quot;&gt;&#x9;&lt;/span&gt;&amp;nbsp; &amp;nbsp; &amp;nbsp;AND position(&#39;,&#39; + i.item_type_l$ + &#39;,&#39; IN pp.item_type_l$_out) = 0&amp;nbsp;&lt;/span&gt;&lt;/div&gt;" style="rhombus;whiteSpace=wrap;html=1;fillColor=#e1d5e7;strokeColor=#9673a6;" parent="CPg8P09N1OD6WJGmpGxm-10" vertex="1">
          <mxGeometry x="980" y="750" width="500" height="159" as="geometry" />
        </mxCell>
        <mxCell id="RlMirk8GaKu8xnlFQnCm-10" style="edgeStyle=orthogonalEdgeStyle;rounded=0;orthogonalLoop=1;jettySize=auto;html=1;entryX=0.5;entryY=0;entryDx=0;entryDy=0;" edge="1" parent="CPg8P09N1OD6WJGmpGxm-10" source="YggckkRVtqMCZooF6UbN-31" target="RlMirk8GaKu8xnlFQnCm-8">
          <mxGeometry relative="1" as="geometry" />
        </mxCell>
        <mxCell id="YggckkRVtqMCZooF6UbN-31" value="&lt;div&gt;sales_invoice_pricing_{publisher}_&lt;/div&gt;&lt;div&gt;{task.extraction_batch_id}_cons_sales_invoice&lt;/div&gt;" style="rounded=0;whiteSpace=wrap;html=1;fillColor=#e1d5e7;strokeColor=#9673a6;" parent="CPg8P09N1OD6WJGmpGxm-10" vertex="1">
          <mxGeometry x="1530" y="800" width="320" height="60" as="geometry" />
        </mxCell>
        <mxCell id="IO22isx14ON4vYv-_GZl-18" style="edgeStyle=orthogonalEdgeStyle;rounded=0;orthogonalLoop=1;jettySize=auto;html=1;" parent="CPg8P09N1OD6WJGmpGxm-10" source="YggckkRVtqMCZooF6UbN-56" target="YggckkRVtqMCZooF6UbN-31" edge="1">
          <mxGeometry relative="1" as="geometry" />
        </mxCell>
        <mxCell id="YggckkRVtqMCZooF6UbN-61" value="ps$&lt;div&gt;rsdistrib$&lt;br&gt;&lt;/div&gt;&lt;div&gt;invoice_id$&lt;br&gt;&lt;/div&gt;&lt;div&gt;invoice_line_id$&lt;br&gt;&lt;/div&gt;&lt;div&gt;udl_start &amp;lt;= max_ing_date &amp;lt; udl_end&lt;/div&gt;" style="rhombus;whiteSpace=wrap;html=1;fillColor=#e1d5e7;strokeColor=#9673a6;" parent="CPg8P09N1OD6WJGmpGxm-10" vertex="1">
          <mxGeometry x="1485" y="890" width="410" height="80" as="geometry" />
        </mxCell>
        <mxCell id="YggckkRVtqMCZooF6UbN-66" value="&lt;div&gt;(position(i.sales_org_l$ IN pr.sales_org_l$) &amp;gt; 0 or pr.sales_org_l$ = &#39;*&#39;)&lt;/div&gt;&lt;div&gt;&lt;span style=&quot;white-space: normal;&quot;&gt;&lt;span style=&quot;white-space:pre&quot;&gt;&#x9;&#x9;&#x9;&lt;/span&gt;&amp;nbsp; &amp;nbsp;AND position(i.sales_org_l$ in pr.sales_org_l$_out) = 0&lt;/span&gt;&lt;/div&gt;&lt;div&gt;&lt;span style=&quot;white-space: normal;&quot;&gt;&lt;span style=&quot;white-space:pre&quot;&gt;&#x9;&#x9;&#x9;&lt;/span&gt;&amp;nbsp; &amp;nbsp;AND c.condition_type = pr.condition_type&lt;/span&gt;&lt;/div&gt;" style="rhombus;whiteSpace=wrap;html=1;fillColor=#e1d5e7;strokeColor=#9673a6;" parent="CPg8P09N1OD6WJGmpGxm-10" vertex="1">
          <mxGeometry x="2000" y="905" width="390" height="50" as="geometry" />
        </mxCell>
        <mxCell id="YggckkRVtqMCZooF6UbN-57" style="edgeStyle=orthogonalEdgeStyle;rounded=0;orthogonalLoop=1;jettySize=auto;html=1;entryX=0;entryY=0.5;entryDx=0;entryDy=0;" parent="CPg8P09N1OD6WJGmpGxm-10" source="YggckkRVtqMCZooF6UbN-61" target="YggckkRVtqMCZooF6UbN-66" edge="1">
          <mxGeometry relative="1" as="geometry" />
        </mxCell>
        <mxCell id="YggckkRVtqMCZooF6UbN-60" style="edgeStyle=orthogonalEdgeStyle;rounded=0;orthogonalLoop=1;jettySize=auto;html=1;entryX=0.5;entryY=0;entryDx=0;entryDy=0;" parent="CPg8P09N1OD6WJGmpGxm-10" source="YggckkRVtqMCZooF6UbN-31" target="YggckkRVtqMCZooF6UbN-61" edge="1">
          <mxGeometry relative="1" as="geometry" />
        </mxCell>
        <mxCell id="YggckkRVtqMCZooF6UbN-8" value="sales_invoice_pricing_{publisher}_&lt;div&gt;{task.extraction_batch_id}_cons_tvko&lt;/div&gt;" style="rounded=0;whiteSpace=wrap;html=1;fillColor=#e1d5e7;strokeColor=#9673a6;" parent="CPg8P09N1OD6WJGmpGxm-10" vertex="1">
          <mxGeometry x="827" y="400" width="352.5" height="60" as="geometry" />
        </mxCell>
        <mxCell id="IO22isx14ON4vYv-_GZl-21" style="edgeStyle=orthogonalEdgeStyle;rounded=0;orthogonalLoop=1;jettySize=auto;html=1;entryX=0;entryY=0.5;entryDx=0;entryDy=0;" parent="CPg8P09N1OD6WJGmpGxm-10" source="YggckkRVtqMCZooF6UbN-47" target="YggckkRVtqMCZooF6UbN-29" edge="1">
          <mxGeometry relative="1" as="geometry" />
        </mxCell>
        <mxCell id="YggckkRVtqMCZooF6UbN-30" value="&lt;div&gt;sales_invoice_pricing_{publisher}_&lt;/div&gt;&lt;div&gt;{task.extraction_batch_id}_cons_pricing_rules&lt;/div&gt;" style="rounded=0;whiteSpace=wrap;html=1;fillColor=#e1d5e7;strokeColor=#9673a6;" parent="CPg8P09N1OD6WJGmpGxm-10" vertex="1">
          <mxGeometry x="827" y="600" width="352.5" height="60" as="geometry" />
        </mxCell>
        <mxCell id="J8bix9W9SIiD5k0__p6W-4" style="edgeStyle=orthogonalEdgeStyle;rounded=0;orthogonalLoop=1;jettySize=auto;html=1;entryX=0.5;entryY=0;entryDx=0;entryDy=0;" parent="CPg8P09N1OD6WJGmpGxm-10" source="YggckkRVtqMCZooF6UbN-30" target="YggckkRVtqMCZooF6UbN-66" edge="1">
          <mxGeometry relative="1" as="geometry" />
        </mxCell>
        <mxCell id="YggckkRVtqMCZooF6UbN-33" value="sales_invoice_pricing_{publisher}_&lt;div&gt;{task.extraction_batch_id}_cons_postings&lt;br&gt;&lt;/div&gt;" style="rounded=0;whiteSpace=wrap;html=1;fillColor=#e1d5e7;strokeColor=#9673a6;" parent="CPg8P09N1OD6WJGmpGxm-10" vertex="1">
          <mxGeometry x="2530" y="1010" width="352.5" height="60" as="geometry" />
        </mxCell>
        <mxCell id="YggckkRVtqMCZooF6UbN-37" value="pricing_sharepoint_pricing_parameters" style="rounded=0;whiteSpace=wrap;html=1;fillColor=#dae8fc;strokeColor=#6c8ebf;" parent="CPg8P09N1OD6WJGmpGxm-10" vertex="1">
          <mxGeometry x="137.5" y="520" width="242.5" height="60" as="geometry" />
        </mxCell>
        <mxCell id="YggckkRVtqMCZooF6UbN-42" style="edgeStyle=orthogonalEdgeStyle;rounded=0;orthogonalLoop=1;jettySize=auto;html=1;entryX=0.5;entryY=1;entryDx=0;entryDy=0;" parent="CPg8P09N1OD6WJGmpGxm-10" source="YggckkRVtqMCZooF6UbN-37" target="YggckkRVtqMCZooF6UbN-47" edge="1">
          <mxGeometry relative="1" as="geometry">
            <mxPoint x="675" y="540" as="targetPoint" />
          </mxGeometry>
        </mxCell>
        <mxCell id="YggckkRVtqMCZooF6UbN-48" value="&lt;div&gt;ps$ in {pricing scope}&lt;/div&gt;enabled_flag = &#39;Y&#39;&lt;div&gt;ids_start &amp;lt;= max_ing_date &amp;lt;&amp;nbsp;ids_end&lt;/div&gt;" style="edgeLabel;html=1;align=center;verticalAlign=middle;resizable=0;points=[];" parent="YggckkRVtqMCZooF6UbN-42" vertex="1" connectable="0">
          <mxGeometry x="-0.786" y="3" relative="1" as="geometry">
            <mxPoint x="84" y="13" as="offset" />
          </mxGeometry>
        </mxCell>
        <mxCell id="RlMirk8GaKu8xnlFQnCm-6" style="edgeStyle=orthogonalEdgeStyle;rounded=0;orthogonalLoop=1;jettySize=auto;html=1;exitX=1;exitY=0.5;exitDx=0;exitDy=0;" edge="1" parent="CPg8P09N1OD6WJGmpGxm-10" source="YggckkRVtqMCZooF6UbN-29" target="YggckkRVtqMCZooF6UbN-56">
          <mxGeometry relative="1" as="geometry" />
        </mxCell>
        <mxCell id="RlMirk8GaKu8xnlFQnCm-7" style="edgeStyle=orthogonalEdgeStyle;rounded=0;orthogonalLoop=1;jettySize=auto;html=1;entryX=0.5;entryY=0;entryDx=0;entryDy=0;" edge="1" parent="CPg8P09N1OD6WJGmpGxm-10" source="YggckkRVtqMCZooF6UbN-29" target="YggckkRVtqMCZooF6UbN-77">
          <mxGeometry relative="1" as="geometry" />
        </mxCell>
        <mxCell id="RlMirk8GaKu8xnlFQnCm-15" style="edgeStyle=orthogonalEdgeStyle;rounded=0;orthogonalLoop=1;jettySize=auto;html=1;entryX=0.5;entryY=0;entryDx=0;entryDy=0;" edge="1" parent="CPg8P09N1OD6WJGmpGxm-10" source="YggckkRVtqMCZooF6UbN-29" target="YggckkRVtqMCZooF6UbN-82">
          <mxGeometry relative="1" as="geometry" />
        </mxCell>
        <mxCell id="YggckkRVtqMCZooF6UbN-29" value="&lt;div&gt;sales_invoice_pricing_{publisher}_&lt;/div&gt;&lt;div&gt;{task.extraction_batch_id}_cons_pricing_parameters&lt;br&gt;&lt;/div&gt;" style="rounded=0;whiteSpace=wrap;html=1;fillColor=#e1d5e7;strokeColor=#9673a6;" parent="CPg8P09N1OD6WJGmpGxm-10" vertex="1">
          <mxGeometry x="827" y="520" width="352.5" height="60" as="geometry" />
        </mxCell>
        <mxCell id="YggckkRVtqMCZooF6UbN-11" value="" style="swimlane;startSize=0;fillColor=#d5e8d4;strokeColor=#82b366;strokeWidth=4;" parent="CPg8P09N1OD6WJGmpGxm-10" vertex="1">
          <mxGeometry x="100" y="750" width="450" height="660" as="geometry" />
        </mxCell>
        <mxCell id="YggckkRVtqMCZooF6UbN-13" value="sales_invoice" style="rounded=0;whiteSpace=wrap;html=1;fillColor=#d5e8d4;strokeColor=#82b366;" parent="YggckkRVtqMCZooF6UbN-11" vertex="1">
          <mxGeometry x="37.5" y="49.5" width="242.5" height="60" as="geometry" />
        </mxCell>
        <mxCell id="YggckkRVtqMCZooF6UbN-14" value="mkt_prc_sales_invoice_condition" style="rounded=0;whiteSpace=wrap;html=1;fillColor=#d5e8d4;strokeColor=#82b366;" parent="YggckkRVtqMCZooF6UbN-11" vertex="1">
          <mxGeometry x="37.5" y="150" width="242.5" height="60" as="geometry" />
        </mxCell>
        <mxCell id="YggckkRVtqMCZooF6UbN-23" value="&lt;font color=&quot;#82b366&quot; style=&quot;font-size: 36px;&quot;&gt;pricing&lt;/font&gt;" style="text;html=1;align=center;verticalAlign=middle;whiteSpace=wrap;rounded=0;" parent="YggckkRVtqMCZooF6UbN-11" vertex="1">
          <mxGeometry x="80" y="10" width="230" height="30" as="geometry" />
        </mxCell>
        <mxCell id="YggckkRVtqMCZooF6UbN-51" value="gl_entry" style="rounded=0;whiteSpace=wrap;html=1;fillColor=#d5e8d4;strokeColor=#82b366;" parent="YggckkRVtqMCZooF6UbN-11" vertex="1">
          <mxGeometry x="37.5" y="260" width="242.5" height="60" as="geometry" />
        </mxCell>
        <mxCell id="YggckkRVtqMCZooF6UbN-52" value="sales_order" style="rounded=0;whiteSpace=wrap;html=1;fillColor=#d5e8d4;strokeColor=#82b366;" parent="YggckkRVtqMCZooF6UbN-11" vertex="1">
          <mxGeometry x="37.5" y="480" width="242.5" height="60" as="geometry" />
        </mxCell>
        <mxCell id="RlMirk8GaKu8xnlFQnCm-5" style="edgeStyle=orthogonalEdgeStyle;rounded=0;orthogonalLoop=1;jettySize=auto;html=1;entryX=0;entryY=0.5;entryDx=0;entryDy=0;" edge="1" parent="CPg8P09N1OD6WJGmpGxm-10" source="YggckkRVtqMCZooF6UbN-13" target="YggckkRVtqMCZooF6UbN-56">
          <mxGeometry relative="1" as="geometry" />
        </mxCell>
        <mxCell id="YggckkRVtqMCZooF6UbN-65" value="" style="edgeStyle=orthogonalEdgeStyle;rounded=0;orthogonalLoop=1;jettySize=auto;html=1;" parent="CPg8P09N1OD6WJGmpGxm-10" source="YggckkRVtqMCZooF6UbN-14" target="YggckkRVtqMCZooF6UbN-61" edge="1">
          <mxGeometry relative="1" as="geometry">
            <mxPoint x="380" y="930" as="sourcePoint" />
            <mxPoint x="2030" y="930" as="targetPoint" />
          </mxGeometry>
        </mxCell>
        <mxCell id="YggckkRVtqMCZooF6UbN-67" value="NVL(c.active_flag, &#39;Y&#39;) != &#39;X&#39;" style="edgeLabel;html=1;align=center;verticalAlign=middle;resizable=0;points=[];" parent="YggckkRVtqMCZooF6UbN-65" vertex="1" connectable="0">
          <mxGeometry x="-0.3797" y="-1" relative="1" as="geometry">
            <mxPoint as="offset" />
          </mxGeometry>
        </mxCell>
        <mxCell id="YggckkRVtqMCZooF6UbN-68" style="edgeStyle=orthogonalEdgeStyle;rounded=0;orthogonalLoop=1;jettySize=auto;html=1;entryX=0;entryY=0.5;entryDx=0;entryDy=0;" parent="CPg8P09N1OD6WJGmpGxm-10" source="YggckkRVtqMCZooF6UbN-51" target="YggckkRVtqMCZooF6UbN-77" edge="1">
          <mxGeometry relative="1" as="geometry" />
        </mxCell>
        <mxCell id="YggckkRVtqMCZooF6UbN-69" value="udl_start &amp;lt;= max_ing_date &amp;lt; udl_end" style="edgeLabel;html=1;align=center;verticalAlign=middle;resizable=0;points=[];" parent="YggckkRVtqMCZooF6UbN-68" vertex="1" connectable="0">
          <mxGeometry x="0.2488" relative="1" as="geometry">
            <mxPoint as="offset" />
          </mxGeometry>
        </mxCell>
        <mxCell id="YggckkRVtqMCZooF6UbN-78" style="edgeStyle=orthogonalEdgeStyle;rounded=0;orthogonalLoop=1;jettySize=auto;html=1;entryX=0;entryY=0.5;entryDx=0;entryDy=0;" parent="CPg8P09N1OD6WJGmpGxm-10" source="YggckkRVtqMCZooF6UbN-52" target="YggckkRVtqMCZooF6UbN-82" edge="1">
          <mxGeometry relative="1" as="geometry" />
        </mxCell>
        <mxCell id="YggckkRVtqMCZooF6UbN-80" value="udl_start &amp;lt;= max_ing_date &amp;lt; udl_end" style="edgeLabel;html=1;align=center;verticalAlign=middle;resizable=0;points=[];" parent="YggckkRVtqMCZooF6UbN-78" vertex="1" connectable="0">
          <mxGeometry x="-0.0997" y="-2" relative="1" as="geometry">
            <mxPoint as="offset" />
          </mxGeometry>
        </mxCell>
        <mxCell id="RlMirk8GaKu8xnlFQnCm-11" style="edgeStyle=orthogonalEdgeStyle;rounded=0;orthogonalLoop=1;jettySize=auto;html=1;" edge="1" parent="CPg8P09N1OD6WJGmpGxm-10" source="RlMirk8GaKu8xnlFQnCm-8" target="YggckkRVtqMCZooF6UbN-33">
          <mxGeometry relative="1" as="geometry" />
        </mxCell>
        <mxCell id="RlMirk8GaKu8xnlFQnCm-8" value="ps$ valid&lt;div&gt;AND&amp;nbsp;udl_start &amp;lt;= ing_date(GL_ENTRY)&amp;nbsp; &amp;lt; udl_end&lt;/div&gt;" style="rhombus;whiteSpace=wrap;html=1;" vertex="1" parent="CPg8P09N1OD6WJGmpGxm-10">
          <mxGeometry x="2120" y="999" width="80" height="80" as="geometry" />
        </mxCell>
        <mxCell id="RlMirk8GaKu8xnlFQnCm-9" style="edgeStyle=orthogonalEdgeStyle;rounded=0;orthogonalLoop=1;jettySize=auto;html=1;entryX=0.106;entryY=0.516;entryDx=0;entryDy=0;entryPerimeter=0;" edge="1" parent="CPg8P09N1OD6WJGmpGxm-10" source="YggckkRVtqMCZooF6UbN-77" target="RlMirk8GaKu8xnlFQnCm-8">
          <mxGeometry relative="1" as="geometry" />
        </mxCell>
        <mxCell id="IO22isx14ON4vYv-_GZl-1" style="edgeStyle=orthogonalEdgeStyle;rounded=0;orthogonalLoop=1;jettySize=auto;html=1;entryX=0.5;entryY=1;entryDx=0;entryDy=0;fillColor=#ffe6cc;strokeColor=#d79b00;" parent="1" source="YggckkRVtqMCZooF6UbN-33" target="CPg8P09N1OD6WJGmpGxm-14" edge="1">
          <mxGeometry relative="1" as="geometry" />
        </mxCell>
        <mxCell id="IO22isx14ON4vYv-_GZl-2" value="&lt;font color=&quot;#d79b00&quot;&gt;udl_start &amp;gt; ed_date (GL_ENTRY)&lt;/font&gt;" style="edgeLabel;html=1;align=center;verticalAlign=middle;resizable=0;points=[];" parent="IO22isx14ON4vYv-_GZl-1" vertex="1" connectable="0">
          <mxGeometry x="-0.4763" relative="1" as="geometry">
            <mxPoint as="offset" />
          </mxGeometry>
        </mxCell>
        <mxCell id="IO22isx14ON4vYv-_GZl-9" style="edgeStyle=orthogonalEdgeStyle;rounded=0;orthogonalLoop=1;jettySize=auto;html=1;entryX=0.5;entryY=1;entryDx=0;entryDy=0;fillColor=#ffe6cc;strokeColor=#d79b00;" parent="1" source="YggckkRVtqMCZooF6UbN-33" target="CPg8P09N1OD6WJGmpGxm-14" edge="1">
          <mxGeometry relative="1" as="geometry">
            <Array as="points">
              <mxPoint x="-1594" y="1430" />
              <mxPoint x="-1070" y="1430" />
            </Array>
          </mxGeometry>
        </mxCell>
        <mxCell id="IO22isx14ON4vYv-_GZl-7" style="edgeStyle=orthogonalEdgeStyle;rounded=0;orthogonalLoop=1;jettySize=auto;html=1;fillColor=#d5e8d4;strokeColor=#82b366;entryX=0.5;entryY=1;entryDx=0;entryDy=0;" parent="1" source="IO22isx14ON4vYv-_GZl-3" target="IO22isx14ON4vYv-_GZl-11" edge="1">
          <mxGeometry relative="1" as="geometry">
            <mxPoint x="-1070" y="970" as="targetPoint" />
          </mxGeometry>
        </mxCell>
        <mxCell id="IO22isx14ON4vYv-_GZl-8" value="&lt;font color=&quot;#82b366&quot; style=&quot;text-wrap: wrap; background-color: rgb(251, 251, 251); font-size: 9px;&quot;&gt;udl_start$ &amp;lt;= max_ing_date &amp;lt; udl_end$&lt;/font&gt;&lt;div style=&quot;font-size: 12px; text-wrap: wrap; background-color: rgb(251, 251, 251);&quot;&gt;&lt;font color=&quot;#82b366&quot; style=&quot;font-size: 9px;&quot;&gt;AND udl_start· &amp;gt; max_ed_date&lt;/font&gt;&lt;/div&gt;" style="edgeLabel;html=1;align=center;verticalAlign=middle;resizable=0;points=[];" parent="IO22isx14ON4vYv-_GZl-7" vertex="1" connectable="0">
          <mxGeometry x="-0.6044" y="2" relative="1" as="geometry">
            <mxPoint y="2" as="offset" />
          </mxGeometry>
        </mxCell>
        <mxCell id="CPg8P09N1OD6WJGmpGxm-33" style="edgeStyle=orthogonalEdgeStyle;rounded=0;orthogonalLoop=1;jettySize=auto;html=1;entryX=0;entryY=0.5;entryDx=0;entryDy=0;fillColor=#d5e8d4;strokeColor=#82b366;" parent="1" source="YggckkRVtqMCZooF6UbN-32" target="CPg8P09N1OD6WJGmpGxm-34" edge="1">
          <mxGeometry relative="1" as="geometry">
            <Array as="points" />
          </mxGeometry>
        </mxCell>
        <mxCell id="IO22isx14ON4vYv-_GZl-16" style="edgeStyle=orthogonalEdgeStyle;rounded=0;orthogonalLoop=1;jettySize=auto;html=1;" parent="1" source="YggckkRVtqMCZooF6UbN-82" target="YggckkRVtqMCZooF6UbN-34" edge="1">
          <mxGeometry relative="1" as="geometry" />
        </mxCell>
        <mxCell id="IO22isx14ON4vYv-_GZl-25" value="" style="edgeStyle=orthogonalEdgeStyle;rounded=0;orthogonalLoop=1;jettySize=auto;html=1;fillColor=#f8cecc;strokeColor=#b85450;" parent="1" source="YggckkRVtqMCZooF6UbN-32" edge="1">
          <mxGeometry relative="1" as="geometry">
            <mxPoint x="-1584" y="1050" as="sourcePoint" />
            <mxPoint x="-1360" y="1080" as="targetPoint" />
            <Array as="points">
              <mxPoint x="-1584" y="1090" />
            </Array>
          </mxGeometry>
        </mxCell>
        <mxCell id="IO22isx14ON4vYv-_GZl-26" value="&lt;font color=&quot;#b85450&quot;&gt;udl_start &amp;lt;= max_ed(MKT)&lt;/font&gt;&lt;div&gt;&lt;font color=&quot;#b85450&quot;&gt;AND ids_start &amp;lt;= max_ed(RULES)&lt;/font&gt;&lt;/div&gt;" style="edgeLabel;html=1;align=center;verticalAlign=middle;resizable=0;points=[];" parent="IO22isx14ON4vYv-_GZl-25" vertex="1" connectable="0">
          <mxGeometry x="-0.1091" relative="1" as="geometry">
            <mxPoint as="offset" />
          </mxGeometry>
        </mxCell>
        <mxCell id="J8bix9W9SIiD5k0__p6W-2" style="edgeStyle=orthogonalEdgeStyle;rounded=0;orthogonalLoop=1;jettySize=auto;html=1;" parent="1" source="YggckkRVtqMCZooF6UbN-66" target="YggckkRVtqMCZooF6UbN-32" edge="1">
          <mxGeometry relative="1" as="geometry" />
        </mxCell>
        <mxCell id="J8bix9W9SIiD5k0__p6W-6" value="" style="edgeStyle=orthogonalEdgeStyle;rounded=0;orthogonalLoop=1;jettySize=auto;html=1;entryX=0;entryY=0.5;entryDx=0;entryDy=0;fillColor=#d5e8d4;strokeColor=#82b366;" parent="1" source="YggckkRVtqMCZooF6UbN-31" target="YggckkRVtqMCZooF6UbN-32" edge="1">
          <mxGeometry relative="1" as="geometry">
            <Array as="points">
              <mxPoint x="-1290" y="950" />
              <mxPoint x="-1290" y="1230" />
              <mxPoint x="-430" y="1230" />
              <mxPoint x="-430" y="1020" />
            </Array>
            <mxPoint x="-2130" y="930" as="sourcePoint" />
            <mxPoint x="-335" y="1230" as="targetPoint" />
          </mxGeometry>
        </mxCell>
        <mxCell id="YggckkRVtqMCZooF6UbN-32" value="sales_invoice_pricing_{publisher}_&lt;div&gt;{task.extraction_batch_id}_cons_sales_invoice_condition&lt;br&gt;&lt;/div&gt;" style="rounded=0;whiteSpace=wrap;html=1;fillColor=#e1d5e7;strokeColor=#9673a6;" parent="1" vertex="1">
          <mxGeometry x="-1260" y="990" width="352.5" height="60" as="geometry" />
        </mxCell>
        <mxCell id="CPg8P09N1OD6WJGmpGxm-24" style="edgeStyle=orthogonalEdgeStyle;rounded=0;orthogonalLoop=1;jettySize=auto;html=1;entryX=0;entryY=0.5;entryDx=0;entryDy=0;fillColor=#f8cecc;strokeColor=#b85450;" parent="1" source="YggckkRVtqMCZooF6UbN-32" target="CPg8P09N1OD6WJGmpGxm-25" edge="1">
          <mxGeometry relative="1" as="geometry" />
        </mxCell>
        <mxCell id="CPg8P09N1OD6WJGmpGxm-17" style="edgeStyle=orthogonalEdgeStyle;rounded=0;orthogonalLoop=1;jettySize=auto;html=1;entryX=0;entryY=0.5;entryDx=0;entryDy=0;fillColor=#f8cecc;strokeColor=#b85450;" parent="1" source="YggckkRVtqMCZooF6UbN-32" target="CPg8P09N1OD6WJGmpGxm-14" edge="1">
          <mxGeometry relative="1" as="geometry" />
        </mxCell>
        <mxCell id="RJPC-IpVycoKtif2ZGqf-4" value="&lt;font color=&quot;#b85450&quot;&gt;udl_start &amp;gt; ed_date (MKT_PRC_SIC)&lt;/font&gt;&lt;div&gt;&lt;font color=&quot;#b85450&quot;&gt;ids_start &amp;gt; ed_date(RULES)&lt;/font&gt;&lt;/div&gt;" style="edgeLabel;html=1;align=center;verticalAlign=middle;resizable=0;points=[];" parent="CPg8P09N1OD6WJGmpGxm-17" vertex="1" connectable="0">
          <mxGeometry x="-0.0078" y="4" relative="1" as="geometry">
            <mxPoint as="offset" />
          </mxGeometry>
        </mxCell>
        <mxCell id="RlMirk8GaKu8xnlFQnCm-13" style="edgeStyle=orthogonalEdgeStyle;rounded=0;orthogonalLoop=1;jettySize=auto;html=1;entryX=0;entryY=0.5;entryDx=0;entryDy=0;" edge="1" parent="1" source="YggckkRVtqMCZooF6UbN-31" target="CPg8P09N1OD6WJGmpGxm-14">
          <mxGeometry relative="1" as="geometry" />
        </mxCell>
        <mxCell id="RlMirk8GaKu8xnlFQnCm-14" value="&lt;font color=&quot;#6c8ebf&quot;&gt;udl_start &amp;gt; max_ed_date&lt;/font&gt;&lt;div&gt;&lt;font color=&quot;#6c8ebf&quot;&gt;PR ids_start (parameters)&lt;/font&gt;&lt;/div&gt;" style="edgeLabel;html=1;align=center;verticalAlign=middle;resizable=0;points=[];" vertex="1" connectable="0" parent="RlMirk8GaKu8xnlFQnCm-13">
          <mxGeometry x="0.0084" y="1" relative="1" as="geometry">
            <mxPoint as="offset" />
          </mxGeometry>
        </mxCell>
      </root>
    </mxGraphModel>
  </diagram>
</mxfile>
